<svg width="49" height="49" viewBox="0 0 49 49" fill="none" xmlns="http://www.w3.org/2000/svg">
<path d="M13.6111 0C6.09506 0 0 6.09506 0 13.6111V35.3889C0 42.9049 6.09506 49 13.6111 49H35.3889C42.9049 49 49 42.9049 49 35.3889V13.6111C49 6.09506 42.9049 0 35.3889 0H13.6111ZM40.8333 5.44444C42.336 5.44444 43.5556 6.664 43.5556 8.16667C43.5556 9.66933 42.336 10.8889 40.8333 10.8889C39.3307 10.8889 38.1111 9.66933 38.1111 8.16667C38.1111 6.664 39.3307 5.44444 40.8333 5.44444ZM24.5 10.8889C32.0161 10.8889 38.1111 16.9839 38.1111 24.5C38.1111 32.0161 32.0161 38.1111 24.5 38.1111C16.9839 38.1111 10.8889 32.0161 10.8889 24.5C10.8889 16.9839 16.9839 10.8889 24.5 10.8889ZM24.5 16.3333C22.3341 16.3333 20.2568 17.1937 18.7253 18.7253C17.1937 20.2568 16.3333 22.3341 16.3333 24.5C16.3333 26.6659 17.1937 28.7432 18.7253 30.2747C20.2568 31.8063 22.3341 32.6667 24.5 32.6667C26.6659 32.6667 28.7432 31.8063 30.2747 30.2747C31.8063 28.7432 32.6667 26.6659 32.6667 24.5C32.6667 22.3341 31.8063 20.2568 30.2747 18.7253C28.7432 17.1937 26.6659 16.3333 24.5 16.3333Z" fill="#4F1C15"/>
</svg>
